<svg width="390" height="69" viewBox="0 0 390 69" fill="none" xmlns="http://www.w3.org/2000/svg">
    <rect width="390" height="69" fill="#222222"/>
    <path d="M34.8952 37.3361V44.5431H34.2623V27.4806H39.5944C41.3366 27.4806 42.6881 27.922 43.6491 28.8048C44.6178 29.6798 45.1022 30.8986 45.1022 32.4611C45.1022 34.0079 44.6295 35.2033 43.6842 36.047C42.7467 36.8908 41.4108 37.3204 39.6764 37.3361H34.8952ZM34.8952 36.7033H39.5944C41.1334 36.7033 42.3288 36.3322 43.1803 35.59C44.0397 34.8478 44.4694 33.8126 44.4694 32.4845C44.4694 31.1095 44.0397 30.0392 43.1803 29.2736C42.3288 28.5001 41.1334 28.1134 39.5944 28.1134H34.8952V36.7033ZM59.8875 39.4454H51.532L49.6336 44.5431H48.9422L55.3289 27.4806H56.1023L62.4891 44.5431H61.7977L59.8875 39.4454ZM51.7664 38.8126H59.6531L55.7156 28.2423L51.7664 38.8126ZM78.915 28.1134H72.7041V44.5431H72.0713V28.1134H65.8603V27.4806H78.915V28.1134ZM92.2355 37.2423H86.3175V44.5431H85.6847V27.4806H91.1222C92.8331 27.4806 94.1925 27.922 95.2003 28.8048C96.2159 29.6876 96.7238 30.8869 96.7238 32.4025C96.7238 33.5665 96.3605 34.5861 95.6339 35.4611C94.9152 36.3283 93.9972 36.8673 92.88 37.0783L97.4386 44.379V44.5431H96.7706L92.2355 37.2423ZM86.3175 36.6095H91.6964C93.0089 36.6095 94.0675 36.2111 94.8722 35.4142C95.6847 34.6173 96.0909 33.6134 96.0909 32.4025C96.0909 31.0744 95.6417 30.0275 94.7433 29.2619C93.8527 28.4962 92.63 28.1134 91.0753 28.1134H86.3175V36.6095ZM109.517 37.4884L115.493 27.4806H116.267L109.833 38.0626V44.5431H109.2V38.0626L102.767 27.4806H103.611L109.517 37.4884ZM126.271 35.5665L123.54 38.0861V44.5431H122.908V27.4806H123.54V37.3478L126.353 34.5939L133.431 27.4806H134.345L126.74 35.1329L134.931 44.5431H134.111L126.271 35.5665ZM158.056 37.2423H152.138V44.5431H151.506V27.4806H156.943C158.654 27.4806 160.013 27.922 161.021 28.8048C162.037 29.6876 162.545 30.8869 162.545 32.4025C162.545 33.5665 162.181 34.5861 161.455 35.4611C160.736 36.3283 159.818 36.8673 158.701 37.0783L163.26 44.379V44.5431H162.592L158.056 37.2423ZM152.138 36.6095H157.517C158.83 36.6095 159.888 36.2111 160.693 35.4142C161.506 34.6173 161.912 33.6134 161.912 32.4025C161.912 31.0744 161.463 30.0275 160.564 29.2619C159.674 28.4962 158.451 28.1134 156.896 28.1134H152.138V36.6095ZM183.189 37.2892C183.189 38.7658 182.924 40.0744 182.393 41.215C181.869 42.3478 181.119 43.2267 180.143 43.8517C179.166 44.4689 178.041 44.7775 176.768 44.7775C174.846 44.7775 173.291 44.0939 172.103 42.7267C170.916 41.3595 170.322 39.5158 170.322 37.1954V34.7345C170.322 33.2658 170.584 31.9611 171.107 30.8204C171.639 29.6798 172.393 28.8009 173.369 28.1837C174.353 27.5587 175.478 27.2462 176.744 27.2462C178.018 27.2462 179.143 27.5587 180.119 28.1837C181.103 28.8009 181.861 29.6837 182.393 30.8322C182.924 31.9728 183.189 33.2736 183.189 34.7345V37.2892ZM182.557 34.7111C182.557 32.6486 182.033 30.9962 180.986 29.754C179.939 28.504 178.525 27.879 176.744 27.879C174.986 27.879 173.584 28.5001 172.537 29.7423C171.49 30.9767 170.967 32.6603 170.967 34.7931V37.2892C170.967 38.6486 171.201 39.8517 171.67 40.8986C172.146 41.9376 172.822 42.7384 173.697 43.3009C174.572 43.8634 175.596 44.1447 176.768 44.1447C178.549 44.1447 179.959 43.5236 180.998 42.2814C182.037 41.0392 182.557 39.3439 182.557 37.1954V34.7111ZM190.275 43.9103H201.549V44.5431H189.408V44.0275L200.295 28.1017H189.877V27.4806H201.174V27.9259L190.275 43.9103ZM212.221 43.4884L212.994 40.6759L217.026 27.4806H217.729L221.737 40.6759L222.498 43.4884L223.295 40.6759L226.811 27.4806H227.502L222.908 44.5431H222.194L217.963 30.3165L217.365 28.5119L216.791 30.3165L212.526 44.5431H211.811L207.205 27.4806H207.908L211.447 40.6759L212.221 43.4884ZM242.897 39.4454H234.541L232.643 44.5431H231.952L238.338 27.4806H239.112L245.498 44.5431H244.807L242.897 39.4454ZM234.776 38.8126H242.663L238.725 28.2423L234.776 38.8126ZM252.092 44.5431V27.4806H256.815C258.135 27.4806 259.331 27.7931 260.401 28.4181C261.471 29.0431 262.311 29.922 262.92 31.0548C263.53 32.1798 263.842 33.4415 263.858 34.84V37.0548C263.858 38.4767 263.557 39.7579 262.956 40.8986C262.362 42.0392 261.53 42.9298 260.46 43.5704C259.389 44.2111 258.194 44.5353 256.874 44.5431H252.092ZM252.725 28.1134V43.9103H256.815C258.01 43.9103 259.096 43.6212 260.073 43.0431C261.057 42.4572 261.827 41.6447 262.381 40.6056C262.936 39.5587 263.217 38.3986 263.225 37.1251V34.9337C263.225 33.6603 262.952 32.504 262.405 31.465C261.866 30.4259 261.108 29.6134 260.131 29.0275C259.163 28.4337 258.088 28.129 256.909 28.1134H252.725ZM283.717 37.2892C283.717 38.7658 283.452 40.0744 282.921 41.215C282.397 42.3478 281.647 43.2267 280.671 43.8517C279.694 44.4689 278.569 44.7775 277.296 44.7775C275.374 44.7775 273.819 44.0939 272.632 42.7267C271.444 41.3595 270.85 39.5158 270.85 37.1954V34.7345C270.85 33.2658 271.112 31.9611 271.635 30.8204C272.167 29.6798 272.921 28.8009 273.897 28.1837C274.882 27.5587 276.007 27.2462 277.272 27.2462C278.546 27.2462 279.671 27.5587 280.647 28.1837C281.632 28.8009 282.389 29.6837 282.921 30.8322C283.452 31.9728 283.717 33.2736 283.717 34.7345V37.2892ZM283.085 34.7111C283.085 32.6486 282.561 30.9962 281.514 29.754C280.467 28.504 279.053 27.879 277.272 27.879C275.514 27.879 274.112 28.5001 273.065 29.7423C272.018 30.9767 271.495 32.6603 271.495 34.7931V37.2892C271.495 38.6486 271.729 39.8517 272.198 40.8986C272.675 41.9376 273.35 42.7384 274.225 43.3009C275.1 43.8634 276.124 44.1447 277.296 44.1447C279.077 44.1447 280.487 43.5236 281.526 42.2814C282.565 41.0392 283.085 39.3439 283.085 37.1954V34.7111ZM294.847 43.4884L295.62 40.6759L299.651 27.4806H300.354L304.362 40.6759L305.124 43.4884L305.921 40.6759L309.436 27.4806H310.128L305.534 44.5431H304.819L300.589 30.3165L299.991 28.5119L299.417 30.3165L295.151 44.5431H294.436L289.831 27.4806H290.534L294.073 40.6759L294.847 43.4884ZM327.269 40.4533C327.269 39.7267 327.097 39.1134 326.753 38.6134C326.417 38.1056 325.882 37.6603 325.148 37.2775C324.421 36.8869 323.319 36.4884 321.843 36.0822C320.366 35.6759 319.257 35.2658 318.515 34.8517C317.78 34.4376 317.241 33.9572 316.898 33.4103C316.554 32.8634 316.382 32.1994 316.382 31.4181C316.382 30.1759 316.905 29.172 317.952 28.4064C318.999 27.6329 320.362 27.2462 322.042 27.2462C323.136 27.2462 324.116 27.4611 324.983 27.8908C325.858 28.3126 326.534 28.9103 327.011 29.6837C327.487 30.4494 327.726 31.3165 327.726 32.2853H327.093C327.093 31.0119 326.624 29.9611 325.687 29.1329C324.749 28.297 323.534 27.879 322.042 27.879C320.542 27.879 319.327 28.215 318.398 28.8869C317.476 29.5509 317.015 30.3869 317.015 31.3947C317.015 32.4181 317.417 33.2423 318.222 33.8673C319.026 34.4923 320.355 35.047 322.206 35.5314C324.058 36.0079 325.413 36.5626 326.273 37.1954C327.366 38.0001 327.913 39.0783 327.913 40.4298C327.913 41.2892 327.671 42.0509 327.187 42.715C326.702 43.3712 326.015 43.879 325.124 44.2384C324.233 44.5978 323.233 44.7775 322.124 44.7775C320.89 44.7775 319.78 44.5744 318.796 44.1681C317.812 43.754 317.069 43.1681 316.569 42.4103C316.077 41.6525 315.831 40.7579 315.831 39.7267H316.464C316.464 41.1251 316.987 42.2111 318.034 42.9845C319.081 43.7579 320.444 44.1447 322.124 44.1447C323.616 44.1447 324.847 43.8048 325.815 43.1251C326.784 42.4376 327.269 41.547 327.269 40.4533ZM338.456 35.5665L335.726 38.0861V44.5431H335.093V27.4806H335.726V37.3478L338.538 34.5939L345.616 27.4806H346.53L338.925 35.1329L347.116 44.5431H346.296L338.456 35.5665ZM355.269 44.5431H354.636V27.4806H355.269V44.5431Z" fill="white" fill-opacity="0.42"/>
    <path d="M34.8952 37.3361V44.5431H34.2623V27.4806H39.5944C41.3366 27.4806 42.6881 27.922 43.6491 28.8048C44.6178 29.6798 45.1022 30.8986 45.1022 32.4611C45.1022 34.0079 44.6295 35.2033 43.6842 36.047C42.7467 36.8908 41.4108 37.3204 39.6764 37.3361H34.8952ZM34.8952 36.7033H39.5944C41.1334 36.7033 42.3288 36.3322 43.1803 35.59C44.0397 34.8478 44.4694 33.8126 44.4694 32.4845C44.4694 31.1095 44.0397 30.0392 43.1803 29.2736C42.3288 28.5001 41.1334 28.1134 39.5944 28.1134H34.8952V36.7033ZM59.8875 39.4454H51.532L49.6336 44.5431H48.9422L55.3289 27.4806H56.1023L62.4891 44.5431H61.7977L59.8875 39.4454ZM51.7664 38.8126H59.6531L55.7156 28.2423L51.7664 38.8126ZM78.915 28.1134H72.7041V44.5431H72.0713V28.1134H65.8603V27.4806H78.915V28.1134ZM92.2355 37.2423H86.3175V44.5431H85.6847V27.4806H91.1222C92.8331 27.4806 94.1925 27.922 95.2003 28.8048C96.2159 29.6876 96.7238 30.8869 96.7238 32.4025C96.7238 33.5665 96.3605 34.5861 95.6339 35.4611C94.9152 36.3283 93.9972 36.8673 92.88 37.0783L97.4386 44.379V44.5431H96.7706L92.2355 37.2423ZM86.3175 36.6095H91.6964C93.0089 36.6095 94.0675 36.2111 94.8722 35.4142C95.6847 34.6173 96.0909 33.6134 96.0909 32.4025C96.0909 31.0744 95.6417 30.0275 94.7433 29.2619C93.8527 28.4962 92.63 28.1134 91.0753 28.1134H86.3175V36.6095ZM109.517 37.4884L115.493 27.4806H116.267L109.833 38.0626V44.5431H109.2V38.0626L102.767 27.4806H103.611L109.517 37.4884ZM126.271 35.5665L123.54 38.0861V44.5431H122.908V27.4806H123.54V37.3478L126.353 34.5939L133.431 27.4806H134.345L126.74 35.1329L134.931 44.5431H134.111L126.271 35.5665ZM158.056 37.2423H152.138V44.5431H151.506V27.4806H156.943C158.654 27.4806 160.013 27.922 161.021 28.8048C162.037 29.6876 162.545 30.8869 162.545 32.4025C162.545 33.5665 162.181 34.5861 161.455 35.4611C160.736 36.3283 159.818 36.8673 158.701 37.0783L163.26 44.379V44.5431H162.592L158.056 37.2423ZM152.138 36.6095H157.517C158.83 36.6095 159.888 36.2111 160.693 35.4142C161.506 34.6173 161.912 33.6134 161.912 32.4025C161.912 31.0744 161.463 30.0275 160.564 29.2619C159.674 28.4962 158.451 28.1134 156.896 28.1134H152.138V36.6095ZM183.189 37.2892C183.189 38.7658 182.924 40.0744 182.393 41.215C181.869 42.3478 181.119 43.2267 180.143 43.8517C179.166 44.4689 178.041 44.7775 176.768 44.7775C174.846 44.7775 173.291 44.0939 172.103 42.7267C170.916 41.3595 170.322 39.5158 170.322 37.1954V34.7345C170.322 33.2658 170.584 31.9611 171.107 30.8204C171.639 29.6798 172.393 28.8009 173.369 28.1837C174.353 27.5587 175.478 27.2462 176.744 27.2462C178.018 27.2462 179.143 27.5587 180.119 28.1837C181.103 28.8009 181.861 29.6837 182.393 30.8322C182.924 31.9728 183.189 33.2736 183.189 34.7345V37.2892ZM182.557 34.7111C182.557 32.6486 182.033 30.9962 180.986 29.754C179.939 28.504 178.525 27.879 176.744 27.879C174.986 27.879 173.584 28.5001 172.537 29.7423C171.49 30.9767 170.967 32.6603 170.967 34.7931V37.2892C170.967 38.6486 171.201 39.8517 171.67 40.8986C172.146 41.9376 172.822 42.7384 173.697 43.3009C174.572 43.8634 175.596 44.1447 176.768 44.1447C178.549 44.1447 179.959 43.5236 180.998 42.2814C182.037 41.0392 182.557 39.3439 182.557 37.1954V34.7111ZM190.275 43.9103H201.549V44.5431H189.408V44.0275L200.295 28.1017H189.877V27.4806H201.174V27.9259L190.275 43.9103ZM212.221 43.4884L212.994 40.6759L217.026 27.4806H217.729L221.737 40.6759L222.498 43.4884L223.295 40.6759L226.811 27.4806H227.502L222.908 44.5431H222.194L217.963 30.3165L217.365 28.5119L216.791 30.3165L212.526 44.5431H211.811L207.205 27.4806H207.908L211.447 40.6759L212.221 43.4884ZM242.897 39.4454H234.541L232.643 44.5431H231.952L238.338 27.4806H239.112L245.498 44.5431H244.807L242.897 39.4454ZM234.776 38.8126H242.663L238.725 28.2423L234.776 38.8126ZM252.092 44.5431V27.4806H256.815C258.135 27.4806 259.331 27.7931 260.401 28.4181C261.471 29.0431 262.311 29.922 262.92 31.0548C263.53 32.1798 263.842 33.4415 263.858 34.84V37.0548C263.858 38.4767 263.557 39.7579 262.956 40.8986C262.362 42.0392 261.53 42.9298 260.46 43.5704C259.389 44.2111 258.194 44.5353 256.874 44.5431H252.092ZM252.725 28.1134V43.9103H256.815C258.01 43.9103 259.096 43.6212 260.073 43.0431C261.057 42.4572 261.827 41.6447 262.381 40.6056C262.936 39.5587 263.217 38.3986 263.225 37.1251V34.9337C263.225 33.6603 262.952 32.504 262.405 31.465C261.866 30.4259 261.108 29.6134 260.131 29.0275C259.163 28.4337 258.088 28.129 256.909 28.1134H252.725ZM283.717 37.2892C283.717 38.7658 283.452 40.0744 282.921 41.215C282.397 42.3478 281.647 43.2267 280.671 43.8517C279.694 44.4689 278.569 44.7775 277.296 44.7775C275.374 44.7775 273.819 44.0939 272.632 42.7267C271.444 41.3595 270.85 39.5158 270.85 37.1954V34.7345C270.85 33.2658 271.112 31.9611 271.635 30.8204C272.167 29.6798 272.921 28.8009 273.897 28.1837C274.882 27.5587 276.007 27.2462 277.272 27.2462C278.546 27.2462 279.671 27.5587 280.647 28.1837C281.632 28.8009 282.389 29.6837 282.921 30.8322C283.452 31.9728 283.717 33.2736 283.717 34.7345V37.2892ZM283.085 34.7111C283.085 32.6486 282.561 30.9962 281.514 29.754C280.467 28.504 279.053 27.879 277.272 27.879C275.514 27.879 274.112 28.5001 273.065 29.7423C272.018 30.9767 271.495 32.6603 271.495 34.7931V37.2892C271.495 38.6486 271.729 39.8517 272.198 40.8986C272.675 41.9376 273.35 42.7384 274.225 43.3009C275.1 43.8634 276.124 44.1447 277.296 44.1447C279.077 44.1447 280.487 43.5236 281.526 42.2814C282.565 41.0392 283.085 39.3439 283.085 37.1954V34.7111ZM294.847 43.4884L295.62 40.6759L299.651 27.4806H300.354L304.362 40.6759L305.124 43.4884L305.921 40.6759L309.436 27.4806H310.128L305.534 44.5431H304.819L300.589 30.3165L299.991 28.5119L299.417 30.3165L295.151 44.5431H294.436L289.831 27.4806H290.534L294.073 40.6759L294.847 43.4884ZM327.269 40.4533C327.269 39.7267 327.097 39.1134 326.753 38.6134C326.417 38.1056 325.882 37.6603 325.148 37.2775C324.421 36.8869 323.319 36.4884 321.843 36.0822C320.366 35.6759 319.257 35.2658 318.515 34.8517C317.78 34.4376 317.241 33.9572 316.898 33.4103C316.554 32.8634 316.382 32.1994 316.382 31.4181C316.382 30.1759 316.905 29.172 317.952 28.4064C318.999 27.6329 320.362 27.2462 322.042 27.2462C323.136 27.2462 324.116 27.4611 324.983 27.8908C325.858 28.3126 326.534 28.9103 327.011 29.6837C327.487 30.4494 327.726 31.3165 327.726 32.2853H327.093C327.093 31.0119 326.624 29.9611 325.687 29.1329C324.749 28.297 323.534 27.879 322.042 27.879C320.542 27.879 319.327 28.215 318.398 28.8869C317.476 29.5509 317.015 30.3869 317.015 31.3947C317.015 32.4181 317.417 33.2423 318.222 33.8673C319.026 34.4923 320.355 35.047 322.206 35.5314C324.058 36.0079 325.413 36.5626 326.273 37.1954C327.366 38.0001 327.913 39.0783 327.913 40.4298C327.913 41.2892 327.671 42.0509 327.187 42.715C326.702 43.3712 326.015 43.879 325.124 44.2384C324.233 44.5978 323.233 44.7775 322.124 44.7775C320.89 44.7775 319.78 44.5744 318.796 44.1681C317.812 43.754 317.069 43.1681 316.569 42.4103C316.077 41.6525 315.831 40.7579 315.831 39.7267H316.464C316.464 41.1251 316.987 42.2111 318.034 42.9845C319.081 43.7579 320.444 44.1447 322.124 44.1447C323.616 44.1447 324.847 43.8048 325.815 43.1251C326.784 42.4376 327.269 41.547 327.269 40.4533ZM338.456 35.5665L335.726 38.0861V44.5431H335.093V27.4806H335.726V37.3478L338.538 34.5939L345.616 27.4806H346.53L338.925 35.1329L347.116 44.5431H346.296L338.456 35.5665ZM355.269 44.5431H354.636V27.4806H355.269V44.5431Z" fill="url(#paint0_linear)"/>
    <defs>
        <linearGradient id="paint0_linear" x1="195" y1="6.54311" x2="195" y2="66.0259" gradientUnits="userSpaceOnUse">
            <stop stop-color="white"/>
            <stop offset="1" stop-color="white" stop-opacity="0"/>
        </linearGradient>
    </defs>
</svg>
